<svg xmlns="http://www.w3.org/2000/svg" id="uuid-7df63da0-4163-4b50-ab2c-737d313261d7" viewBox="0 0 323.7 56.2"><defs><style>.uuid-2227e225-3ae5-46e4-bb5b-38133f50b611{fill:#000001;}</style></defs><g id="uuid-ed1192c5-27d7-4a42-bad7-e8b505a472dd"><g><path class="uuid-2227e225-3ae5-46e4-bb5b-38133f50b611" d="M41.5,55.3h-10.5c-.9,0-1.6-.7-1.6-1.6V11.2h-5c-3.2,0-3.9,.7-3.9,3.9v2.2h4.8c.9,0,1.6,.7,1.6,1.6v7.7c0,.9-.7,1.6-1.6,1.6h-4.8v25.4c0,.9-.7,1.6-1.6,1.6H8.2c-.9,0-1.6-.7-1.6-1.6V28.3H1.6c-.9,0-1.6-.7-1.6-1.6v-7.7c0-.9,.7-1.6,1.6-1.6H6.5v-1.7C6.5,4.5,11.1,0,22.4,0h19.1c.9,0,1.6,.7,1.6,1.6V53.7c0,.9-.7,1.6-1.6,1.6Z"></path><path class="uuid-2227e225-3ae5-46e4-bb5b-38133f50b611" d="M68,16.5c-12.4,0-20.7,8-20.7,19.8s7.9,19.8,20.7,19.8,20.6-7.8,20.6-19.8-7.9-19.8-20.6-19.8Zm0,29.5c-4.5,0-7.4-3.7-7.4-9.6s2.8-9.6,7.4-9.6,7.4,3.6,7.4,9.6-2.8,9.6-7.4,9.6Z"></path><path class="uuid-2227e225-3ae5-46e4-bb5b-38133f50b611" d="M135.3,55.3h-11.6c-.7,0-1.4-.5-1.6-1.2l-4.7-18.2-4.7,18.2c-.2,.7-.8,1.2-1.6,1.2h-11.6c-.7,0-1.4-.5-1.6-1.2l-10.2-34.7c-.1-.5,0-1,.3-1.4,.3-.4,.8-.7,1.3-.7h10.5c.8,0,1.4,.5,1.6,1.2l4.5,18.8,5.1-18.9c.2-.7,.8-1.2,1.6-1.2h9.7c.7,0,1.4,.5,1.6,1.2l5.1,18.9,4.5-18.8c.2-.7,.8-1.2,1.6-1.2h10.2c.5,0,1,.2,1.3,.7,.3,.4,.4,.9,.3,1.4l-10.2,34.7c-.2,.7-.8,1.2-1.6,1.2Z"></path><path class="uuid-2227e225-3ae5-46e4-bb5b-38133f50b611" d="M169.9,55.3h-5.8c-10.8,0-14.8-3.9-14.8-14.4V8.5c0-.9,.7-1.6,1.6-1.6h10.6c.9,0,1.6,.7,1.6,1.6v8.9h6.7c.9,0,1.6,.7,1.6,1.6v7.7c0,.9-.7,1.6-1.6,1.6h-6.7v12c0,3,.4,3.5,3.2,3.5h3.5c.9,0,1.6,.7,1.6,1.6v8.3c0,.9-.7,1.6-1.6,1.6Z"></path><path class="uuid-2227e225-3ae5-46e4-bb5b-38133f50b611" d="M187,55.3h-10.5c-.9,0-1.6-.7-1.6-1.6V19c0-.9,.7-1.6,1.6-1.6h10.1c.9,0,1.6,.7,1.6,1.6v.4c2.1-1.9,4.7-2.9,7.8-2.9s3.5,.2,5.8,1.7c.5,.4,.8,1,.7,1.7l-1.8,9c-.1,.5-.4,.9-.9,1.1-.4,.2-1,.2-1.4,0-1.3-.7-2.4-1-3.5-1-5.5,0-6,6-6,8.6v16c0,.9-.7,1.6-1.6,1.6Z"></path><path class="uuid-2227e225-3ae5-46e4-bb5b-38133f50b611" d="M262.3,56.2c-13.1,0-20.6-7.2-20.6-19.8s7.9-19.8,20.6-19.8,18,5.7,18.8,14.6c0,.5-.1,.9-.4,1.3-.3,.3-.7,.5-1.2,.5h-10.4c-.8,0-1.5-.6-1.6-1.4-.3-1.8-1.9-4-5.2-4s-6.4,3.5-6.4,8.8,2.6,8.8,6.4,8.8,5-2.8,5.2-4c.1-.8,.8-1.3,1.6-1.3h10.4c.5,0,.9,.2,1.2,.5,.3,.3,.5,.8,.4,1.3-.7,7-6,14.6-18.8,14.6Z"></path><path class="uuid-2227e225-3ae5-46e4-bb5b-38133f50b611" d="M322.1,55.3h-12.1c-.5,0-1.1-.3-1.4-.7l-7.9-11.7-2.1,2.3v8.5c0,.9-.7,1.6-1.6,1.6h-10.5c-.9,0-1.6-.7-1.6-1.6V1.6c0-.9,.7-1.6,1.6-1.6h10.5c.9,0,1.6,.7,1.6,1.6V28l9.1-10.1c.3-.3,.7-.5,1.2-.5h12c.7,0,1.2,.4,1.5,1,.3,.6,.1,1.3-.3,1.8l-12.1,12.9,13.5,19.8c.3,.5,.4,1.1,0,1.7-.3,.5-.8,.9-1.4,.9Z"></path><path class="uuid-2227e225-3ae5-46e4-bb5b-38133f50b611" d="M220.3,16.5c-9.4,0-16.8,4.8-17.7,13.2,0,.5,.1,.9,.4,1.2,.3,.3,.7,.5,1.2,.5h9.9c.9,0,1.2-.6,1.3-1.5,.2-2.5,2.3-3.7,4.9-3.7s4.3,1.7,4.3,4.1-.3,.7-3.2,1.2l-6.6,1c-9.1,1.3-13.3,5.2-13.3,12.1s5,11.5,13.4,11.5,7.4-1,10-2.9v.4c0,.9,.7,1.6,1.6,1.6h10.1c.9,0,1.6-.7,1.6-1.6V30.7c0-9.4-6-14.2-17.9-14.2Zm5,23.4c0,5.1-3.7,7-7.2,7s-4.2-1.8-4.2-3.3,1.3-3.1,4-3.5l4.8-.7c.7,0,1.2-.2,1.7-.4l.9-.3v1.4Z"></path></g></g></svg>